# Blender v2.82 (sub 7) OBJ File: 'mincraft_test_model.blend'
# www.blender.org
mtllib washing_machine.mtl
o Cube
v 1.000000 0.000000 0.932352
v 1.000000 0.876944 0.932352
v 1.000000 0.000000 0.000000
v 1.000000 0.876944 0.000000
v 1.000000 0.783858 0.000000
v 1.000000 0.783858 0.932352
v 0.673768 0.188227 0.189777
v 0.745746 0.361995 0.189777
v 0.673768 0.535764 0.189777
v 0.673768 0.188227 0.932352
v 0.745746 0.361995 0.932352
v 0.673768 0.535764 0.932352
v 1.000000 0.453457 0.932352
v 0.000000 0.000000 0.932352
v 0.000000 0.000000 0.000000
v 0.000000 0.876944 0.000000
v 0.014642 0.843220 0.932352
v 0.000000 0.783858 0.000000
v 0.014642 0.794201 0.932352
v 0.500000 0.607741 0.189777
v 0.500000 0.116250 0.189777
v 0.326232 0.188227 0.189777
v 0.254254 0.361995 0.189777
v 0.326232 0.535764 0.189777
v 0.500000 0.607741 0.932352
v 0.500000 0.116250 0.932352
v 0.326232 0.188227 0.932352
v 0.254254 0.361995 0.932352
v 0.326232 0.535764 0.932352
v 0.166789 0.794201 0.932352
v 0.000000 0.453457 0.932352
v 0.500000 0.000000 0.932352
v 0.166789 0.843220 0.932352
v 0.500000 0.876944 0.932352
v 0.500000 0.876944 0.000000
v 0.500000 0.000000 0.000000
v 0.500000 0.783858 0.000000
v 0.500000 0.783858 0.932352
v 0.000000 0.876944 0.932352
v 0.000000 0.783858 0.932352
v 0.014642 0.843220 0.937547
v 0.014642 0.794201 0.937547
v 0.166789 0.794201 0.937547
v 0.166789 0.843220 0.937547
v 1.000000 0.876944 0.120490
v 1.000000 0.783858 0.120490
v 0.500000 0.876944 0.120490
v 0.000000 0.876944 0.120490
v 0.000000 0.783858 0.120490
v 0.500000 0.992380 0.000000
v 1.000000 0.992380 0.000000
v 0.000000 0.992380 0.000000
v 1.000000 0.992380 0.069618
v 0.500000 0.992380 0.069618
v 0.000000 0.992380 0.069618
v 0.673768 0.188227 0.930253
v 0.745746 0.361995 0.930253
v 0.673768 0.535764 0.930253
v 0.500000 0.607741 0.930253
v 0.500000 0.116250 0.930253
v 0.326232 0.188227 0.930253
v 0.254254 0.361995 0.930253
v 0.326232 0.535764 0.930253
v 0.692261 0.169734 0.930253
v 0.771898 0.361995 0.930253
v 0.692261 0.554257 0.930253
v 0.500000 0.633894 0.930253
v 0.500000 0.090097 0.930253
v 0.307739 0.169734 0.930253
v 0.228102 0.361995 0.930253
v 0.307739 0.554257 0.930253
v 0.673768 0.188227 0.959944
v 0.745746 0.361995 0.959944
v 0.673768 0.535764 0.959944
v 0.500000 0.607741 0.959944
v 0.500000 0.116250 0.959944
v 0.326232 0.188227 0.959944
v 0.254254 0.361995 0.959944
v 0.326232 0.535764 0.959944
v 0.692261 0.169734 0.959944
v 0.771898 0.361995 0.959944
v 0.692261 0.554257 0.959944
v 0.500000 0.633894 0.959944
v 0.500000 0.090097 0.959944
v 0.307739 0.169734 0.959944
v 0.228102 0.361995 0.959944
v 0.307739 0.554257 0.959944
v 0.722746 0.321735 0.968438
v 0.722746 0.397376 0.968438
v 0.722746 0.321735 0.926502
v 0.722746 0.397376 0.926502
v 0.798388 0.321735 0.968438
v 0.798388 0.397376 0.968438
v 0.798388 0.321735 0.926502
v 0.798388 0.397376 0.926502
v 0.185868 0.397746 0.968438
v 0.185868 0.423121 0.968438
v 0.185868 0.397746 0.926502
v 0.185868 0.423121 0.926502
v 0.284953 0.397746 0.968438
v 0.284953 0.423121 0.968438
v 0.284953 0.397746 0.926502
v 0.284953 0.423121 0.926502
v 0.185868 0.301078 0.968438
v 0.185868 0.326453 0.968438
v 0.185868 0.301078 0.926502
v 0.185868 0.326453 0.926502
v 0.284953 0.301078 0.968438
v 0.284953 0.326453 0.968438
v 0.284953 0.301078 0.926502
v 0.284953 0.326453 0.926502
vt 0.247903 0.193982
vt 0.248004 0.216908
vt 0.125828 0.217508
vt 0.125620 0.195072
vt 0.468673 0.472455
vt 0.468751 0.498947
vt 0.250650 0.499674
vt 0.250572 0.473181
vt 0.125553 0.295138
vt 0.125553 0.496905
vt 0.001291 0.496905
vt 0.001291 0.295138
vt 0.500379 0.249264
vt 0.501041 0.472347
vt 0.250292 0.379151
vt 0.249909 0.250098
vt 0.469598 -0.000641
vt 0.516226 -0.000650
vt 0.516256 0.218616
vt 0.469628 0.218625
vt 0.562854 -0.000659
vt 0.609482 -0.000667
vt 0.609512 0.218598
vt 0.562884 0.218607
vt 0.001291 -0.000144
vt 0.125553 -0.000144
vt 0.125553 0.194663
vt 0.001291 0.194663
vt 0.656110 -0.000676
vt 0.656140 0.218589
vt 0.001291 0.217797
vt 0.125553 0.217797
vt 0.125207 0.151074
vt 0.167903 0.132872
vt 0.185551 0.089599
vt 0.248131 0.112321
vt 0.248355 -0.000545
vt 0.167747 0.046270
vt 0.124755 -0.000745
vt 0.124742 0.028290
vt 0.039905 0.211846
vt 0.004611 0.212857
vt 0.005770 0.211360
vt 0.038260 0.210824
vt 0.281728 0.472761
vt 0.500714 0.472761
vt 0.500714 0.499255
vt 0.281728 0.499255
vt 0.249814 0.295138
vt 0.249814 0.496905
vt 0.249227 0.249660
vt 0.500714 0.249660
vt 0.500714 0.378723
vt 0.249227 0.472761
vt 0.423000 0.218634
vt 0.422970 -0.000632
vt 0.376342 -0.000623
vt 0.376372 0.218643
vt 0.329744 0.218651
vt 0.329714 -0.000614
vt 0.249814 -0.000144
vt 0.249814 0.194663
vt 0.283116 0.218660
vt 0.283086 -0.000605
vt 0.249814 0.217797
vt 0.000306 0.195896
vt 0.081897 0.133266
vt 0.063904 0.089725
vt 0.000614 0.112700
vt 0.000744 -0.000886
vt 0.081682 0.046265
vt 0.038879 0.198163
vt 0.003530 0.198007
vt 0.001138 0.220817
vt 0.247738 0.896833
vt 0.192568 0.896833
vt 0.192568 0.879059
vt 0.247738 0.879059
vt 0.005306 0.199102
vt 0.037793 0.199583
vt 0.125553 0.246486
vt 0.001291 0.246486
vt 0.249227 0.499255
vt 0.125553 0.263787
vt 0.249814 0.263787
vt 0.501120 0.498839
vt 0.249814 0.246486
vt 0.001291 0.263787
vt 0.268006 0.532110
vt 0.249227 0.532110
vt 0.501218 0.531691
vt 0.482515 0.531754
vt 0.917098 0.504089
vt 0.873288 0.449484
vt 0.877762 0.441088
vt 0.925575 0.501294
vt 0.871700 0.614748
vt 0.874571 0.621942
vt 0.805396 0.623500
vt 0.808253 0.615440
vt 0.757049 0.570063
vt 0.749007 0.574297
vt 0.742270 0.497111
vt 0.751366 0.500031
vt 0.917725 0.572001
vt 0.925575 0.575510
vt 0.800623 0.445603
vt 0.796655 0.436002
vt 0.859185 0.234518
vt 0.862481 0.226561
vt 0.910940 0.275020
vt 0.902983 0.278316
vt 0.753446 0.278316
vt 0.753446 0.340257
vt 0.745489 0.343553
vt 0.745489 0.275020
vt 0.797245 0.384055
vt 0.859185 0.384055
vt 0.862481 0.392012
vt 0.793949 0.392012
vt 0.797245 0.234518
vt 0.793949 0.226561
vt 0.910940 0.343553
vt 0.902983 0.340257
vt 0.766868 0.564579
vt 0.811665 0.605363
vt 0.423875 0.698965
vt 0.492406 0.699188
vt 0.492375 0.708966
vt 0.423843 0.708743
vt 0.868397 0.606452
vt 0.560938 0.699411
vt 0.560906 0.709188
vt 0.867517 0.459622
vt 0.805830 0.458097
vt 0.286812 0.698520
vt 0.286780 0.708298
vt 0.218248 0.708075
vt 0.218280 0.698298
vt 0.906422 0.507436
vt 0.149717 0.707853
vt 0.149748 0.698075
vt 0.908193 0.567475
vt 0.081184 0.707630
vt 0.081216 0.697852
vt 0.762628 0.503352
vt 0.012652 0.707408
vt 0.012684 0.697630
vt 0.355343 0.698743
vt 0.355312 0.708521
vt 0.837768 0.826439
vt 0.863973 0.826439
vt 0.863973 0.852644
vt 0.837768 0.852644
vt 0.863973 0.878849
vt 0.837768 0.878849
vt 0.863973 0.905054
vt 0.837768 0.905054
vt 0.863973 0.931259
vt 0.837768 0.931259
vt 0.811563 0.878849
vt 0.811563 0.905054
vt 0.890178 0.878849
vt 0.890178 0.905054
vt 0.837589 0.824749
vt 0.864151 0.824749
vt 0.864151 0.851311
vt 0.837589 0.851311
vt 0.864151 0.877873
vt 0.837589 0.877873
vt 0.864151 0.904435
vt 0.837589 0.904435
vt 0.864151 0.930996
vt 0.837589 0.930996
vt 0.811028 0.877873
vt 0.811028 0.904435
vt 0.890713 0.877873
vt 0.890713 0.904435
vt 0.837675 0.828364
vt 0.862918 0.828364
vt 0.862918 0.853607
vt 0.837675 0.853607
vt 0.862918 0.878849
vt 0.837675 0.878849
vt 0.862918 0.904092
vt 0.837675 0.904092
vt 0.862918 0.929334
vt 0.837675 0.929334
vt 0.812433 0.878849
vt 0.812433 0.904092
vt 0.888161 0.878849
vt 0.888161 0.904092
vt 0.250710 -0.000535
vt 0.249797 0.231671
vt 0.125270 0.231182
vt 0.126182 -0.001024
vt 0.001655 -0.001514
vt 0.000742 0.230693
vt 0.745009 0.412725
vt 0.947535 0.412687
vt 0.918603 0.412692
vt 0.889670 0.412698
vt 0.860738 0.412703
vt 0.831806 0.412709
vt 0.802873 0.412714
vt 0.773941 0.412720
vt 0.819074 0.184156
vt 0.775275 0.140357
vt 0.775275 0.078417
vt 0.819074 0.034619
vt 0.881014 0.034619
vt 0.924812 0.078417
vt 0.924812 0.140357
vt 0.881014 0.184156
vn 0.0000 0.0000 1.0000
vn 1.0000 0.0000 0.0000
vn 0.0000 1.0000 0.0000
vn -0.3827 -0.9239 0.0000
vn -0.9239 0.3827 0.0000
vn 0.0000 0.0000 -1.0000
vn -0.9239 -0.3827 0.0000
vn -0.3827 0.9239 0.0000
vn -1.0000 0.0000 0.0000
vn 0.3827 -0.9239 0.0000
vn 0.9239 0.3827 0.0000
vn 0.9239 -0.3827 0.0000
vn 0.3827 0.9239 0.0000
vn 0.0000 -1.0000 0.0000
vn 0.0000 0.4033 0.9151
usemtl Material
s off
f 6/1/1 2/2/1 34/3/1 38/4/1
f 46/5/2 45/6/2 2/7/2 6/8/2
f 47/9/3 34/10/3 2/11/3 45/12/3
f 3/13/2 5/14/2 46/5/2 6/8/2 13/15/2 1/16/2
f 20/17/4 9/18/4 12/19/4 25/20/4
f 8/21/5 7/22/5 10/23/5 11/24/5
f 3/25/6 36/26/6 37/27/6 5/28/6
f 9/18/7 8/21/7 11/24/7 12/19/7
f 7/22/8 21/29/8 26/30/8 10/23/8
f 4/31/6 5/28/6 37/27/6 35/32/6
f 25/33/1 12/34/1 6/1/1 38/4/1
f 11/35/1 13/36/1 6/1/1 12/34/1
f 1/37/1 13/36/1 11/35/1 10/38/1
f 32/39/1 1/37/1 10/38/1 26/40/1
f 33/41/3 17/42/3 41/43/3 44/44/3
f 49/45/9 40/46/9 39/47/9 48/48/9
f 47/9/3 48/49/3 39/50/3 34/10/3
f 15/51/9 14/52/9 31/53/9 40/46/9 49/45/9 18/54/9
f 20/17/10 25/20/10 29/55/10 24/56/10
f 23/57/11 28/58/11 27/59/11 22/60/11
f 15/61/6 18/62/6 37/27/6 36/26/6
f 24/56/12 29/55/12 28/58/12 23/57/12
f 22/60/13 27/59/13 26/63/13 21/64/13
f 16/65/6 35/32/6 37/27/6 18/62/6
f 25/33/1 38/4/1 40/66/1 29/67/1
f 28/68/1 29/67/1 40/66/1 31/69/1
f 14/70/1 27/71/1 28/68/1 31/69/1
f 32/39/1 26/40/1 27/71/1 14/70/1
f 33/41/1 30/72/1 38/4/1 34/3/1
f 19/73/1 17/42/1 39/74/1 40/66/1
f 30/72/1 19/73/1 40/66/1 38/4/1
f 17/42/1 33/41/1 34/3/1 39/74/1
f 42/75/1 43/76/1 44/77/1 41/78/1
f 17/42/9 19/73/9 42/79/9 41/43/9
f 19/73/14 30/72/14 43/80/14 42/79/14
f 30/72/2 33/41/2 44/44/2 43/80/2
f 4/31/6 35/32/6 50/81/6 51/82/6
f 18/54/9 49/45/9 48/48/9 16/83/9
f 48/49/15 47/9/15 54/84/15 55/85/15
f 5/14/2 4/86/2 45/6/2 46/5/2
f 50/81/3 52/87/3 55/85/3 54/84/3
f 50/81/3 54/84/3 53/88/3 51/82/3
f 47/9/15 45/12/15 53/88/15 54/84/15
f 35/32/6 16/65/6 52/87/6 50/81/6
f 16/83/9 48/48/9 55/89/9 52/90/9
f 45/6/2 4/86/2 51/91/2 53/92/2
f 62/93/6 61/94/6 69/95/6 70/96/6
f 59/97/6 67/98/6 66/99/6 58/100/6
f 57/101/6 65/102/6 64/103/6 56/104/6
f 63/105/6 62/93/6 70/96/6 71/106/6
f 61/94/6 60/107/6 68/108/6 69/95/6
f 58/100/6 66/99/6 65/102/6 57/101/6
f 56/104/6 64/103/6 68/108/6 60/107/6
f 59/97/6 63/105/6 71/106/6 67/98/6
f 78/109/1 86/110/1 85/111/1 77/112/1
f 75/113/1 74/114/1 82/115/1 83/116/1
f 73/117/1 72/118/1 80/119/1 81/120/1
f 79/121/1 87/122/1 86/110/1 78/109/1
f 77/112/1 85/111/1 84/123/1 76/124/1
f 74/114/1 73/117/1 81/120/1 82/115/1
f 72/118/1 76/124/1 84/123/1 80/119/1
f 75/113/1 83/116/1 87/122/1 79/121/1
f 58/100/7 57/101/7 73/125/7 74/126/7
f 65/127/11 66/128/11 82/129/11 81/130/11
f 59/97/4 58/100/4 74/126/4 75/131/4
f 66/128/13 67/132/13 83/133/13 82/129/13
f 61/94/13 77/134/13 76/135/13 60/107/13
f 68/136/4 84/137/4 85/138/4 69/139/4
f 62/93/11 78/140/11 77/134/11 61/94/11
f 69/139/7 85/138/7 86/141/7 70/142/7
f 63/105/12 79/143/12 78/140/12 62/93/12
f 70/142/5 86/141/5 87/144/5 71/145/5
f 59/97/10 75/131/10 79/143/10 63/105/10
f 56/104/8 60/107/8 76/135/8 72/146/8
f 71/145/8 87/144/8 83/147/8 67/148/8
f 68/136/10 64/149/10 80/150/10 84/137/10
f 57/101/5 56/104/5 72/146/5 73/125/5
f 64/149/12 65/127/12 81/130/12 80/150/12
f 88/151/9 89/152/9 91/153/9 90/154/9
f 90/154/6 91/153/6 95/155/6 94/156/6
f 94/156/2 95/155/2 93/157/2 92/158/2
f 92/158/1 93/157/1 89/159/1 88/160/1
f 90/161/14 94/156/14 92/158/14 88/162/14
f 95/155/3 91/163/3 89/164/3 93/157/3
f 96/165/9 97/166/9 99/167/9 98/168/9
f 98/168/6 99/167/6 103/169/6 102/170/6
f 102/170/2 103/169/2 101/171/2 100/172/2
f 100/172/1 101/171/1 97/173/1 96/174/1
f 98/175/14 102/170/14 100/172/14 96/176/14
f 103/169/3 99/177/3 97/178/3 101/171/3
f 104/179/9 105/180/9 107/181/9 106/182/9
f 106/182/6 107/181/6 111/183/6 110/184/6
f 110/184/2 111/183/2 109/185/2 108/186/2
f 108/186/1 109/185/1 105/187/1 104/188/1
f 106/189/14 110/184/14 108/186/14 104/190/14
f 111/183/3 107/191/3 105/192/3 109/185/3
f 3/193/14 1/194/14 32/195/14 36/196/14
f 15/197/14 36/196/14 32/195/14 14/198/14
f 21/199/1 7/200/1 8/201/1 9/202/1 20/203/1 24/204/1 23/205/1 22/206/1
usemtl Material.001
f 73/207/6 72/208/6 76/209/6 77/210/6 78/211/6 79/212/6 75/213/6 74/214/6
